# xmcd
#
# Track frame offsets: 
#        150
#        18528
#        36866
#        54644
#        73049
#        92999
#        112279
#        133107
#        152247
#        171238
#        187506
#        205546
#        224760
#        242202
#
# Disc length: 3437 seconds
#
# Revision: 2
# Processed by: cddbd v1.5.2PL0 Copyright (c) Steve Scherf et al.
# Submitted via: ExactAudioCopy v1.1
#
DISCID=d20d6b0e
DTITLE=TLC - 20
DYEAR=2013
DGENRE=R&B
TTITLE0=Ain't 2 Proud 2 Beg
TTITLE1=What About Your Friends
TTITLE2=Baby-Baby-Baby
TTITLE3=Hat 2 Da Back
TTITLE4=Creep
TTITLE5=Waterfalls
TTITLE6=Red Light Special
TTITLE7=Diggin' On You
TTITLE8=Kick Your Game
TTITLE9=No Scrubs
TTITLE10=Unpretty
TTITLE11=Silly Ho
TTITLE12=Damaged
TTITLE13=Meant To Be
EXTD=
EXTT0=
EXTT1=
EXTT2=
EXTT3=
EXTT4=
EXTT5=
EXTT6=
EXTT7=
EXTT8=
EXTT9=
EXTT10=
EXTT11=
EXTT12=
EXTT13=
PLAYORDER=
